<?xml version="1.0" encoding="UTF-8"?>
<!DOCTYPE svg PUBLIC "-//W3C//DTD SVG 1.1//EN" "http://www.w3.org/Graphics/SVG/1.1/DTD/svg11.dtd">
<!-- Creator: CorelDRAW 2019 (64-Bit) -->
<svg xmlns="http://www.w3.org/2000/svg" xml:space="preserve" width="129.401mm" height="36.9704mm" version="1.1" style="shape-rendering:geometricPrecision; text-rendering:geometricPrecision; image-rendering:optimizeQuality; fill-rule:evenodd; clip-rule:evenodd"
viewBox="0 0 12925.88 3692.97"
 xmlns:xlink="http://www.w3.org/1999/xlink"
 xmlns:xodm="http://www.corel.com/coreldraw/odm/2003">
 <defs>
  <style type="text/css">
   <![CDATA[
    .fil0 {fill:#323435}
    .fil2 {fill:#2B2A29;fill-rule:nonzero}
    .fil1 {fill:url(#id0)}
   ]]>
  </style>
  <linearGradient id="id0" gradientUnits="userSpaceOnUse" x1="-181.53" y1="2033.12" x2="3862.14" y2="2033.12">
   <stop offset="0" style="stop-opacity:1; stop-color:#E1D363"/>
   <stop offset="0.14902" style="stop-opacity:1; stop-color:#E1D363"/>
   <stop offset="0.521569" style="stop-opacity:1; stop-color:#FCFB8A"/>
   <stop offset="0.839216" style="stop-opacity:1; stop-color:#E1D363"/>
   <stop offset="1" style="stop-opacity:1; stop-color:#E1D363"/>
  </linearGradient>
 </defs>
 <g id="Слой_x0020_1">
  <metadata id="CorelCorpID_0Corel-Layer"/>
  <g id="_3012530604512">
   <path class="fil0" d="M1657.73 2111.21c14.3,-53.76 40.29,-123.98 59.97,-181.96l154.12 -456.17c5.34,-15.74 9.86,-29.11 15.16,-44.75 5.44,-16.06 8.98,-33.52 18.73,-44.24l244.21 727.23 -492.2 -0.11zm-359.26 -596.45c-17.46,68.46 -52.24,153.51 -76.13,222.01l-379.39 1099.37c-3.49,22.19 3.41,39.69 14.83,52.84 15.79,18.2 27.14,23.86 50.49,24.62 48.81,1.61 100.74,-0.09 149.9,-0.09 93.59,-0.02 207.47,7.42 295.69,-7.8 19.34,-15 39.77,-22.09 54.86,-57.45 11.57,-27.09 20.92,-62.31 30.17,-89.59l30.27 -89.56c4.6,-13.59 23.53,-82.72 34.45,-85.35l688.48 -0.17c73.82,-1.08 589.67,4.93 614.43,-3.48 40.05,-13.62 52.91,-52.77 36.18,-100.27l-276.64 -798.04c-20.86,-59.52 -143.55,-404.03 -157.69,-457.73 -48.08,-112.06 -102.21,-351.12 -163.95,-411.18 -31.61,-30.74 -54.2,-35.21 -111.96,-35.08l-426.72 0.05c-79.49,-0.05 -148.26,-2.76 -186.99,102.2 -29.37,79.52 -202.39,597.07 -220.3,634.69z"/>
   <path class="fil1" d="M2948.68 3568.51l437.85 0c200.38,0.12 179.6,-98.08 179.6,-258.37 0,-327.49 -6.22,-510.12 42.26,-841.43 11.99,-81.92 31.44,-165.25 47.27,-244.79 57.8,-290.41 51.86,-573.92 -22.13,-853.46 -4.9,-18.52 -10.02,-39.32 -16.36,-58.52 -49.34,-149.33 -57.93,-172.62 -126.6,-314.66 -26.33,-54.47 -100.88,-175.6 -137.28,-225.89 -6.09,-8.41 -9.83,-12.28 -16.25,-21.75l-48.21 -63.54c-7.01,-8.77 -10.8,-13.06 -17.49,-20.55 -7.65,-8.56 -9.1,-12.23 -16.84,-20.56 -12.31,-13.24 -20.79,-24.8 -33.69,-37.45 -29.96,-29.36 -63.62,-75.19 -108.73,-112.17 -26.71,-21.91 -51.59,-46.78 -77.98,-68.02 -15.72,-12.67 -70.12,-59.96 -85.42,-64.14 -20.71,-29.62 -202.5,-135.21 -246.65,-157.28 -74.3,-37.13 -132.39,-64.23 -210.76,-93.07l-77.98 -26.75c-20.09,-4.64 -40.19,-12.73 -60.75,-17.94 -182.67,-46.31 -291.71,-68.18 -497.1,-68.18 -54.79,0 -105.69,-0.06 -156.4,3.96 -84.37,6.67 -198.98,25.19 -278.57,43.94l-126.52 34.48 -148.09 54c-23.7,9.97 -47.88,19.5 -70.26,30.86 -23.96,12.15 -44.17,19.81 -68.03,32.45l-124.05 70.62c-25.1,15.38 -114.01,71.08 -124.95,85.42 -14.1,3.86 -64.3,47.5 -79.08,59.04l-261.87 262.02 -62.06 80.12c-0.46,0.62 -1.12,1.51 -1.59,2.13l-85.25 128.19c-0.4,0.7 -0.96,1.64 -1.38,2.34 -29.65,49.53 -71.92,122.42 -95.03,175.1l-11.03 26.23c-29.81,57.63 -74.96,193.79 -93.74,258.43 -76.53,263.3 -80.15,483.13 -49.68,758.53 15.69,141.71 68.57,314.02 119.49,442.15 6.26,15.76 13.29,34.17 21.24,49.92l108.74 206.32c5.42,9.03 7.95,14.2 13.42,23.41l77.8 113.5c2.87,4.05 4.22,6.07 7.64,10.7l55.07 69.09c4.45,5.28 3.55,5.27 7.64,10.61l136.08 144.57 121.6 107.4c22.13,17.38 46.12,40.47 71.98,54.55l272.11 166.03 231.94 93.76c18.08,6.07 71.09,24.41 86.8,24.79 0.87,0.49 2.27,0.06 2.74,1.24 0.47,1.18 2.12,0.94 2.77,1.18l108.57 26.61c332.05,67.8 582.18,41.04 905.4,-29.03 18.79,-1.67 47.23,-7.72 66.44,-11.58 94.82,-19.05 335.62,-44.81 431.29,-44.59 27.35,0.06 54.71,0 82.06,0zm-1290.95 -1457.3l492.2 0.11 -244.21 -727.23c-9.75,10.72 -13.29,28.18 -18.73,44.24 -5.3,15.64 -9.82,29.01 -15.16,44.75l-154.12 456.17c-19.69,57.98 -45.67,128.2 -59.97,181.96zm750.65 -887.13c14.13,53.69 136.83,398.2 157.69,457.73l276.64 798.04c16.73,47.5 3.87,86.64 -36.18,100.27 -24.76,8.41 -540.61,2.4 -614.43,3.48l-688.48 0.17c-10.92,2.63 -29.85,71.76 -34.45,85.35l-30.27 89.56c-9.25,27.28 -18.6,62.5 -30.17,89.59 -15.09,35.36 -35.52,42.44 -54.86,57.45 -88.22,15.22 -202.11,7.78 -295.69,7.8 -49.17,0 -101.1,1.7 -149.9,0.09 -23.35,-0.76 -34.7,-6.42 -50.49,-24.62 -11.43,-13.16 -18.32,-30.66 -14.83,-52.84l379.39 -1099.37c23.88,-68.49 58.67,-153.54 76.13,-222.01 17.91,-37.62 190.93,-555.17 220.3,-634.69 38.74,-104.95 107.5,-102.25 186.99,-102.2l426.72 -0.05c57.76,-0.13 80.35,4.35 111.96,35.08 61.74,60.05 115.87,299.12 163.95,411.18z"/>
   <path class="fil0" d="M5497.63 1673.8c0,-93.46 8.53,-174.67 63.56,-247.22 16.5,-21.77 53.45,-49.03 81.31,-60.94 177.2,-75.79 379.18,20.23 379.18,251.99 0,106.58 7.61,201.58 -67.94,284.03l-5.4 5.82c-0.55,0.55 -1.35,1.32 -1.9,1.85 -114.62,110.4 -311.06,81.17 -383.66,-12.39 -42.23,-54.42 -65.16,-128.65 -65.16,-223.14zm520.31 -468.06c-11.5,-7.7 -16.41,-15.93 -27.3,-25.11 -132.57,-111.71 -367.14,-130.72 -504.96,-46.77 -79.6,48.49 -117.51,77.23 -171.46,158 -10.33,15.46 -15.2,24.84 -25.02,42.37 -15.01,26.78 -30.16,59.37 -40,91.05 -44.89,144.58 -42.86,323.63 -0.83,467.92 16.23,55.71 57.64,129.33 92.53,173.29 126.42,159.28 343.4,217.96 544.51,137.51 49.08,-19.62 65.83,-33.65 102.62,-62.1 11.5,-8.88 18.58,-18.65 29.92,-26.24 0,123.97 30.87,101.1 228.34,101.1 23.37,0 52.4,-29.04 52.4,-52.42l0 -1407.94c0,-39.77 -31.13,-59.91 -71.12,-59.91 -51.85,0 -159.84,-9.31 -186.42,15.72 -15.33,14.44 -22.05,24.04 -23.26,51.61 -2.07,46.6 0.07,98.86 0.07,146.11 0,98.6 0,197.2 0,295.81z"/>
   <path class="fil0" d="M4516.91 1980.86c-58.11,0 -153.47,-22.55 -153.47,-74.9 0,-52.89 5.25,-77.95 68.56,-107.39 37.58,-17.47 78.74,-22.08 122.66,-30.83l257.96 -45.26c0,62.33 -1.21,73.75 -22.42,116.12 -19.17,38.29 -35.45,51.56 -62.81,75.72 -42.55,37.55 -130.64,66.54 -210.49,66.54zm-318.18 -554.19l205.88 0c80.8,0 77.77,-86.13 209.62,-86.13 88.88,0 198.39,35.86 198.39,138.55l0 22.47c-21.69,0 -39.22,4.59 -58.94,8.45 -123.72,24.23 -297.36,42.31 -407.57,79.07 -42.89,14.3 -102.94,41.88 -138.35,67.55 -98.09,71.08 -125.07,144.1 -125.07,268.06 0,118.93 81.53,220.34 168.37,265.92 122.91,64.51 294.36,62.3 422.59,10.72 75.02,-30.18 133.09,-100.47 138.96,-104.39 0,142.4 14.41,119.83 224.59,119.83 31.01,0 56.15,-24.45 56.15,-56.17l0 -659.03c0,-183.88 -106.19,-331.79 -280.27,-389.9 -168.05,-56.11 -385.15,-33.79 -522.92,69.47 -57.07,42.77 -114.77,113.54 -131.22,187.28 -3.76,16.8 -5.95,25.76 3.14,38.57 6.18,8.71 22.74,19.69 36.64,19.69z"/>
   <path class="fil0" d="M9693.76 1340.54c96.33,0 173.21,32.08 212.22,109.74 9.01,17.94 23.07,60.77 23.6,84.98l-479.13 0c3.38,-40.51 24.99,-83.27 49.49,-111.53 46.92,-54.15 106.05,-83.19 193.83,-83.19zm-524.04 314.53c0,98.85 11.94,166.77 38.79,245.78 12.25,36 25.47,61.61 42.27,92.52 66.12,121.69 180,199.43 314.93,231.65 87.21,20.84 211.84,17.65 295.76,-5.25 55.14,-15.05 92.27,-32.1 139.26,-55.42 20.6,-10.21 42.13,-23.42 60.45,-36.88 50.73,-37.25 122.93,-107.65 122.93,-176.58 0,-22.96 -25.7,-48.69 -48.66,-48.69l-202.14 0c-44.55,0 -77.1,78.64 -232.07,78.64 -73.18,0 -130.54,-18.61 -174.36,-50.25 -48.9,-35.31 -76.45,-83.25 -76.45,-148.21l707.47 0c79.44,0 63.64,-89.38 63.64,-157.27 0,-87.09 -18.5,-158.4 -43.84,-222.01 -17.99,-45.17 -44.47,-91.28 -73.74,-128.44l-31.17 -36.24c-157.17,-156.47 -387.93,-203.1 -603.59,-107.55 -119.75,53.05 -212.75,167.41 -257.8,288.81 -23.85,64.28 -41.7,148.25 -41.7,235.37z"/>
   <path class="fil0" d="M10783.04 1168.29l0 542.95c0,309.12 112.53,527.98 445.44,527.98 93.1,0 167.88,-24.68 240.15,-78.05l59.31 -49.26c0,24.5 -3.63,55.53 5.96,72.66 7.65,13.64 27.25,32.18 46.44,32.18l168.44 0c38.28,0 59.89,-28.65 59.89,-67.41l0 -977.31c0,-21.3 -4.26,-33.27 -14.18,-45.72 -7.78,-9.74 -22.05,-21.68 -38.23,-21.68l-175.93 0c-17.96,0 -35.3,15.84 -43.51,27.62 -12.61,18.08 -8.93,34.32 -8.89,62.24l0 426.88c0,116.53 1.56,258.61 -99.43,327.41 -71.41,48.66 -196.94,48.8 -267.48,2.17 -99.13,-65.55 -97.25,-213.62 -97.25,-329.58l0 -426.88c0.04,-27.92 3.72,-44.16 -8.9,-62.24 -8.2,-11.78 -25.54,-27.62 -43.5,-27.62l-168.44 0c-35.52,0 -59.89,28.72 -59.89,63.65z"/>
   <path class="fil0" d="M11958.4 1164.55l0 134.8c0,21.68 10.5,41.09 23.77,51.11 17.56,13.27 32.73,12.68 62.31,12.56l452.94 -0.01c-17.15,25.61 -120.71,130.18 -141.14,154.63l-106.77 117.86c-14.7,14.86 -22.81,22.32 -36.01,38.87l-126.73 135.34c-7.5,8.99 -8.21,11.69 -16.93,20.51 -7.01,7.07 -11.91,11.34 -18.87,18.57 -8.43,8.76 -9.24,12.06 -16.79,20.64 -12.56,14.26 -24.86,22.7 -36.77,38.12 -19.55,25.34 -57.73,51.77 -57.73,92.04l0 168.5c0,26.61 28.35,48.68 56.15,48.68l868.43 0c39.51,0 59.88,-32.02 59.88,-71.15 0,-60.55 11.27,-148.25 -23.76,-174.68 -20.48,-15.45 -39.91,-12.57 -73.56,-12.55l-509.08 0c10.11,-15.09 24.19,-24.01 36.33,-38.55l288.34 -314.42c44.36,-44.15 103.17,-114.69 144.17,-155.34 31.22,-30.95 92.64,-95.51 92.64,-135.74l0 -153.52c0,-32.37 -30.35,-56.17 -52.4,-56.17l-816.02 0c-27.57,0 -52.4,30.63 -52.4,59.9z"/>
   <path class="fil0" d="M8043.01 1636.36l0 56.17c0,196.45 93.02,362.14 225.28,452.39 272.61,186.01 699.89,85.85 811.59,-194.02 11.42,-28.6 38.9,-94.02 8.53,-124.63 -6.87,-6.93 -22.31,-17.66 -34.74,-17.66l-179.67 0c-23.45,0 -37.62,20.85 -48.19,34.18l-36.25 49.86c-9.89,13.2 -17.45,19.97 -28.72,31.18 -18.4,18.31 -45.59,33.99 -73.48,42.58 -68.53,21.09 -149.56,18.43 -214.53,-7.37 -98.23,-39.01 -149.09,-144.91 -149.09,-262.76 0,-96.13 -0.36,-205.65 66.36,-274.37 51.64,-53.19 112.23,-81.36 191.92,-81.36 139.42,0 173.98,44.53 229.37,118.8 13.72,18.4 34.32,53.45 62.61,53.45l179.67 0c21.9,0 48.66,-27.87 48.66,-48.69 0,-60.89 -35.06,-127.4 -59.87,-164.77 -93.64,-141.03 -271.04,-217.17 -460.43,-217.17 -319.27,0 -539.02,233.86 -539.02,554.19z"/>
   <path class="fil0" d="M6392.25 1164.55c0,15.68 160.66,375.19 173.77,406.57 5.63,13.5 9.06,19.41 15,33.67 50.57,121.45 110.79,249.05 161.49,370.17 19.77,47.23 38.34,89.11 59.02,135.67 56.2,126.47 31.91,106.12 242.03,106.12 54.16,0 67.33,-63.98 91.09,-114.82l127.62 -291.72c78.71,-188.99 176.68,-394.05 253.47,-581.47 11.55,-28.18 28.45,-54.29 23.13,-76.3 -6.66,-27.58 -24.88,-47.81 -57.36,-47.81l-168.44 0c-37.3,0 -55.56,32.2 -68.46,62.57l-198.91 463.8c-13.34,31.84 -26.2,61.3 -39.47,91.57l-34.81 81.26c-0.5,1.04 -1.95,4.08 -2.45,5.03 -0.37,0.72 -0.98,1.81 -1.31,2.44l-277 -638.24c-11.33,-26.7 -31.93,-68.43 -66.34,-68.43l-179.67 0c-27.58,0 -52.41,30.63 -52.41,59.9z"/>
   <path class="fil0" d="M7635 1160.81l0 999.78c0,35.81 32.3,56.17 52.4,56.17l168.44 0c44.95,0 59.89,-37.29 59.89,-78.63l0 -954.85c0,-40.79 -14.49,-78.63 -59.89,-78.63l-164.7 0c-31.96,0 -56.15,24.19 -56.15,56.17z"/>
   <path class="fil0" d="M10318.88 1950.9l0 205.94c0,29.28 24.83,59.91 52.4,59.91l205.87 0c39.52,0 59.89,-32.02 59.89,-71.15l0 -183.48c0,-35.03 -19.77,-71.14 -52.4,-71.14l-213.36 0c-27.57,0 -52.4,30.64 -52.4,59.91z"/>
   <path class="fil0" d="M7623.77 756.4l0 168.5c0,32.03 26.95,56.17 48.66,56.17l202.14 0c22.95,0 48.66,-25.71 48.66,-48.68l0 -183.49c0,-32.64 -36.1,-52.42 -71.12,-52.42 -53.08,0 -176.76,-9.17 -206.67,14.18 -11.49,8.97 -21.66,25.94 -21.66,45.73z"/>
   <g>
    <path class="fil2" d="M4335.28 2508.19c3.6,0 6.7,1.31 9.32,3.93 2.62,2.62 3.93,5.72 3.93,9.32l0 316.83c0,3.6 -1.31,6.7 -3.93,9.32 -2.62,2.62 -5.72,3.93 -9.32,3.93l-20.11 0c-3.6,0 -6.7,-1.31 -9.32,-3.93 -2.62,-2.62 -3.93,-5.72 -3.93,-9.32l0 -138.31 -172.64 0 0 138.31c0,3.6 -1.31,6.7 -3.93,9.32 -2.62,2.62 -5.72,3.93 -9.32,3.93l-20.11 0c-3.6,0 -6.7,-1.23 -9.32,-3.68 -2.61,-2.46 -3.92,-5.64 -3.92,-9.57l0 -316.83c0,-3.6 1.31,-6.7 3.92,-9.32 2.62,-2.62 5.72,-3.93 9.32,-3.93l20.11 0c3.6,0 6.7,1.31 9.32,3.93 2.62,2.62 3.93,5.72 3.93,9.32l0 134.38 172.64 0 0 -134.38c0,-3.6 1.31,-6.7 3.93,-9.32 2.62,-2.62 5.72,-3.93 9.32,-3.93l20.11 0zm61.7 101.53c0,-3.6 1.31,-6.7 3.93,-9.32 2.62,-2.62 5.72,-3.93 9.32,-3.93l18.14 0c3.6,0 6.7,1.31 9.32,3.93 2.62,2.62 3.93,5.72 3.93,9.32l0 129.48c0,25.18 5.64,43.98 16.92,56.41 11.28,12.42 27.71,18.63 49.3,18.63 20.6,0 36.78,-6.21 48.55,-18.63 11.78,-12.43 17.66,-31.23 17.66,-56.41l0 -129.48c0,-3.6 1.31,-6.7 3.93,-9.32 2.62,-2.62 5.72,-3.93 9.32,-3.93l18.14 0c3.61,0 6.71,1.31 9.32,3.93 2.62,2.62 3.93,5.72 3.93,9.32l0 228.55c0,3.6 -1.31,6.7 -3.93,9.32 -2.61,2.62 -5.71,3.93 -9.32,3.93l-18.14 0c-3.6,0 -6.7,-1.31 -9.32,-3.93 -2.62,-2.62 -3.93,-5.72 -3.93,-9.32l0 -15.2c-6.21,8.18 -15.04,15.78 -26.48,22.8 -11.45,7.03 -27.14,10.55 -47.09,10.55 -15.36,0 -29.43,-2.54 -42.18,-7.6 -12.75,-5.06 -23.7,-12.27 -32.85,-21.58 -9.16,-9.32 -16.19,-20.77 -21.1,-34.33 -4.9,-13.58 -7.35,-29.03 -7.35,-46.35l0 -136.84zm366.29 246.7c-15.37,0 -29.68,-2.7 -42.92,-8.09 -13.24,-5.39 -24.76,-13.08 -34.57,-23.05 -9.81,-9.97 -17.66,-22.16 -23.54,-36.54 -5.88,-14.38 -9.32,-30.57 -10.3,-48.56 -0.33,-4.9 -0.49,-10.22 -0.49,-15.93 0,-5.72 0.16,-11.04 0.49,-15.94 0.98,-17.99 4.42,-34.17 10.3,-48.56 5.88,-14.38 13.73,-26.65 23.54,-36.79 9.81,-10.13 21.34,-17.9 34.57,-23.29 13.25,-5.39 27.55,-8.09 42.92,-8.09 19.94,0 35.96,3.36 48.06,10.06 12.11,6.7 21.43,14.46 27.96,23.29l0 -15.2c0,-3.6 1.31,-6.7 3.93,-9.32 2.62,-2.62 5.72,-3.93 9.32,-3.93l18.15 0c3.6,0 6.7,1.31 9.31,3.93 2.62,2.62 3.93,5.72 3.93,9.32l0 321.74c0,3.6 -1.31,6.7 -3.93,9.32 -2.61,2.62 -5.71,3.93 -9.31,3.93l-18.15 0c-3.6,0 -6.7,-1.31 -9.32,-3.93 -2.62,-2.62 -3.93,-5.72 -3.93,-9.32l0 -108.39c-6.21,8.18 -15.36,15.78 -27.46,22.8 -12.11,7.03 -28.29,10.55 -48.56,10.55zm76.02 -153.51c-0.98,-21.26 -8.01,-38.1 -21.09,-50.52 -13.08,-12.42 -29.76,-18.63 -50.02,-18.63 -21.59,0 -38.59,6.86 -51.01,20.6 -12.43,13.73 -19.29,32.36 -20.6,55.91 -0.33,9.16 -0.33,18.31 0,27.47 1.31,23.54 8.17,42.17 20.6,55.91 12.43,13.73 29.43,20.6 51.01,20.6 20.6,0 37.35,-6.29 50.26,-18.88 12.92,-12.59 19.87,-30.49 20.85,-53.7 0.33,-4.9 0.49,-11.37 0.49,-19.38 0,-8.01 -0.16,-14.46 -0.49,-19.37zm87.7 -93.19c0,-3.6 1.31,-6.7 3.93,-9.32 2.62,-2.62 5.72,-3.93 9.32,-3.93l18.14 0c3.6,0 6.7,1.31 9.32,3.93 2.62,2.62 3.93,5.72 3.93,9.32l0 129.48c0,25.18 5.64,43.98 16.92,56.41 11.28,12.42 27.71,18.63 49.3,18.63 20.6,0 36.78,-6.21 48.55,-18.63 11.78,-12.43 17.66,-31.23 17.66,-56.41l0 -129.48c0,-3.6 1.31,-6.7 3.93,-9.32 2.62,-2.62 5.72,-3.93 9.32,-3.93l18.14 0c3.61,0 6.71,1.31 9.32,3.93 2.62,2.62 3.93,5.72 3.93,9.32l0 228.55c0,3.6 -1.31,6.7 -3.93,9.32 -2.61,2.62 -5.71,3.93 -9.32,3.93l-18.14 0c-3.6,0 -6.7,-1.31 -9.32,-3.93 -2.62,-2.62 -3.93,-5.72 -3.93,-9.32l0 -15.2c-6.21,8.18 -15.04,15.78 -26.48,22.8 -11.45,7.03 -27.14,10.55 -47.09,10.55 -15.36,0 -29.43,-2.54 -42.18,-7.6 -12.75,-5.06 -23.7,-12.27 -32.85,-21.58 -9.16,-9.32 -16.19,-20.77 -21.1,-34.33 -4.9,-13.58 -7.35,-29.03 -7.35,-46.35l0 -136.84zm366.29 246.7c-15.37,0 -29.68,-2.7 -42.92,-8.09 -13.24,-5.39 -24.76,-13.08 -34.57,-23.05 -9.81,-9.97 -17.66,-22.16 -23.54,-36.54 -5.88,-14.38 -9.32,-30.57 -10.3,-48.56 -0.33,-4.9 -0.49,-10.22 -0.49,-15.93 0,-5.72 0.16,-11.04 0.49,-15.94 0.98,-17.99 4.42,-34.17 10.3,-48.56 5.88,-14.38 13.73,-26.65 23.54,-36.79 9.81,-10.13 21.34,-17.9 34.57,-23.29 13.25,-5.39 27.55,-8.09 42.92,-8.09 19.94,0 35.96,3.36 48.06,10.06 12.11,6.7 21.43,14.46 27.96,23.29l0 -15.2c0,-3.6 1.31,-6.7 3.93,-9.32 2.62,-2.62 5.72,-3.93 9.32,-3.93l18.15 0c3.6,0 6.7,1.31 9.31,3.93 2.62,2.62 3.93,5.72 3.93,9.32l0 321.74c0,3.6 -1.31,6.7 -3.93,9.32 -2.61,2.62 -5.71,3.93 -9.31,3.93l-18.15 0c-3.6,0 -6.7,-1.31 -9.32,-3.93 -2.62,-2.62 -3.93,-5.72 -3.93,-9.32l0 -108.39c-6.21,8.18 -15.36,15.78 -27.46,22.8 -12.11,7.03 -28.29,10.55 -48.56,10.55zm76.02 -153.51c-0.98,-21.26 -8.01,-38.1 -21.09,-50.52 -13.08,-12.42 -29.76,-18.63 -50.02,-18.63 -21.59,0 -38.59,6.86 -51.01,20.6 -12.43,13.73 -19.29,32.36 -20.6,55.91 -0.33,9.16 -0.33,18.31 0,27.47 1.31,23.54 8.17,42.17 20.6,55.91 12.43,13.73 29.43,20.6 51.01,20.6 20.6,0 37.35,-6.29 50.26,-18.88 12.92,-12.59 19.87,-30.49 20.85,-53.7 0.33,-4.9 0.49,-11.37 0.49,-19.38 0,-8.01 -0.16,-14.46 -0.49,-19.37zm134.79 135.36c0,3.6 -1.31,6.7 -3.93,9.32 -2.62,2.62 -5.72,3.93 -9.32,3.93l-18.15 0c-3.6,0 -6.7,-1.31 -9.32,-3.93 -2.62,-2.62 -3.93,-5.72 -3.93,-9.32l0 -228.55c0,-3.6 1.31,-6.7 3.93,-9.32 2.62,-2.62 5.72,-3.93 9.32,-3.93l18.15 0c3.6,0 6.7,1.31 9.32,3.93 2.62,2.62 3.93,5.72 3.93,9.32l0 228.55zm4.9 -293.79c0,3.6 -1.31,6.7 -3.93,9.32 -2.62,2.62 -5.72,3.93 -9.32,3.93l-27.96 0c-3.6,0 -6.7,-1.31 -9.32,-3.93 -2.62,-2.62 -3.93,-5.72 -3.93,-9.32l0 -27.95c0,-3.6 1.31,-6.7 3.93,-9.32 2.62,-2.62 5.72,-3.93 9.32,-3.93l27.96 0c3.6,0 6.7,1.31 9.32,3.93 2.62,2.62 3.93,5.72 3.93,9.32l0 27.95zm115.65 388.45c-0.98,2.61 -2.62,5.22 -4.9,7.84 -2.29,2.62 -5.39,3.93 -9.32,3.93l-20.11 0c-3.28,0 -6.05,-1.15 -8.34,-3.44 -2.29,-2.29 -3.44,-5.06 -3.44,-8.33 0,-1.31 0.17,-2.46 0.49,-3.44l47.09 -102.51 -97.11 -215.31c-0.32,-0.98 -0.49,-2.13 -0.49,-3.44 0,-3.27 1.15,-6.04 3.44,-8.33 2.29,-2.29 5.06,-3.44 8.34,-3.44l20.11 0c3.92,0 7.02,1.31 9.32,3.93 2.29,2.62 3.92,5.23 4.9,7.84l75.53 166.76 76.52 -166.76c0.98,-2.61 2.61,-5.22 4.9,-7.84 2.29,-2.62 5.39,-3.93 9.31,-3.93l20.12 0c3.27,0 6.04,1.15 8.33,3.44 2.29,2.29 3.44,5.06 3.44,8.33 0,1.31 -0.16,2.46 -0.49,3.44l-147.63 321.26zm258.38 -145.67c0,-13.08 2.62,-24.52 7.84,-34.33 5.23,-9.81 12.43,-18.15 21.59,-25.01 9.15,-6.87 19.86,-12.43 32.12,-16.68 12.26,-4.25 25.25,-7.51 38.99,-9.81l69.15 -11.28 0 -6.37c0,-16.68 -5.47,-29.19 -16.42,-37.52 -10.96,-8.34 -24.61,-12.51 -40.95,-12.51 -14.39,0 -25.26,2.61 -32.61,7.84 -7.36,5.23 -13.65,11.45 -18.89,18.64 -1.96,2.62 -4.09,4.42 -6.37,5.39 -2.29,0.98 -5.39,1.47 -9.32,1.47l-14.71 0c-3.6,0 -6.78,-1.31 -9.56,-3.92 -2.79,-2.62 -4.01,-5.72 -3.69,-9.32 0.66,-7.19 3.52,-14.55 8.59,-22.08 5.06,-7.52 11.93,-14.22 20.6,-20.11 8.66,-5.88 18.64,-10.71 29.92,-14.46 11.28,-3.77 23.29,-5.64 36.05,-5.64 14.71,0 28.36,2.13 40.95,6.37 12.59,4.26 23.37,10.47 32.36,18.64 8.99,8.17 16.02,18.31 21.09,30.41 5.07,12.1 7.6,26 7.6,41.69l0 149.59c0,3.6 -1.3,6.7 -3.92,9.32 -2.62,2.62 -5.72,3.93 -9.32,3.93l-18.15 0c-3.6,0 -6.7,-1.31 -9.32,-3.93 -2.62,-2.62 -3.93,-5.72 -3.93,-9.32l0 -20.11c-2.94,6.21 -7.51,11.69 -13.72,16.43 -6.21,4.74 -13.33,8.75 -21.34,12.02 -8.01,3.27 -16.35,5.72 -25.01,7.35 -8.67,1.64 -16.76,2.46 -24.28,2.46 -12.75,0 -24.44,-1.8 -35.06,-5.39 -10.63,-3.6 -19.62,-8.42 -26.98,-14.47 -7.35,-6.04 -13.08,-13.32 -17.16,-21.82 -4.1,-8.51 -6.13,-17.66 -6.13,-27.47zm90.24 26.97c11.78,0 22.57,-1.8 32.37,-5.39 9.81,-3.6 18.23,-8.58 25.25,-14.95 7.03,-6.38 12.43,-13.98 16.19,-22.8 3.76,-8.83 5.63,-18.64 5.63,-29.43l0 -12.27 -57.87 9.32c-20.61,3.27 -36.95,8.5 -49.05,15.69 -12.11,7.19 -18.15,16.51 -18.15,27.96 0,3.6 0.82,7.19 2.45,10.79 1.64,3.6 4.26,7.03 7.85,10.3 3.6,3.28 8.26,5.88 13.97,7.85 5.72,1.96 12.84,2.94 21.34,2.94zm264.27 -58.86l-69.15 86.81c-1.31,1.64 -3.19,3.6 -5.64,5.88 -2.45,2.29 -5.8,3.44 -10.05,3.44l-22.57 0c-3.27,0 -6.04,-1.15 -8.33,-3.44 -2.3,-2.29 -3.44,-4.9 -3.44,-7.84 0,-2.62 0.65,-4.9 1.96,-6.87l89.76 -112.32 -84.86 -106.42c-1.31,-1.97 -1.96,-4.26 -1.96,-6.87 0,-2.94 1.14,-5.55 3.44,-7.84 2.29,-2.29 5.06,-3.44 8.33,-3.44l23.54 0c4.26,0 7.6,1.15 10.06,3.44 2.45,2.29 4.33,4.25 5.63,5.88l65.24 81.91 64.74 -81.91c1.31,-1.64 3.19,-3.6 5.63,-5.88 2.46,-2.29 5.8,-3.44 10.06,-3.44l22.57 0c3.27,0 6.04,1.15 8.33,3.44 2.29,2.29 3.44,4.9 3.44,7.84 0,2.62 -0.65,4.9 -1.96,6.87l-85.35 107.41 88.77 111.33c1.31,1.97 1.97,4.26 1.97,6.87 0,2.94 -1.15,5.55 -3.44,7.84 -2.29,2.29 -5.06,3.44 -8.34,3.44l-23.54 0c-4.25,0 -7.6,-1.15 -10.05,-3.44 -2.46,-2.29 -4.34,-4.25 -5.64,-5.88l-69.15 -86.81zm264.76 -163.81c15.37,0 29.68,2.7 42.91,8.09 13.25,5.39 24.77,13.08 34.58,23.05 9.81,9.97 17.65,22.16 23.54,36.54 5.88,14.38 9.32,30.57 10.3,48.56 0.33,4.9 0.49,10.22 0.49,15.93 0,5.72 -0.16,11.04 -0.49,15.94 -0.98,17.99 -4.42,34.17 -10.3,48.56 -5.89,14.38 -13.73,26.65 -23.54,36.79 -9.81,10.13 -21.34,17.9 -34.58,23.29 -13.24,5.39 -27.54,8.09 -42.91,8.09 -19.95,0 -35.97,-3.36 -48.07,-10.06 -12.1,-6.7 -21.42,-14.46 -27.95,-23.29l0 15.2c0,3.6 -1.31,6.7 -3.93,9.32 -2.62,2.62 -5.72,3.93 -9.32,3.93l-18.15 0c-3.6,0 -6.7,-1.31 -9.32,-3.93 -2.62,-2.62 -3.93,-5.72 -3.93,-9.32l0 -321.74c0,-3.6 1.31,-6.7 3.93,-9.32 2.62,-2.62 5.72,-3.93 9.32,-3.93l18.15 0c3.6,0 6.7,1.31 9.32,3.93 2.62,2.62 3.93,5.72 3.93,9.32l0 108.39c6.21,-8.18 15.36,-15.78 27.46,-22.8 12.1,-7.03 28.29,-10.55 48.56,-10.55zm-76.02 153.51c1.63,21.26 8.82,38.1 21.58,50.52 12.76,12.42 29.27,18.63 49.54,18.63 21.58,0 38.5,-6.86 50.76,-20.6 12.26,-13.73 19.21,-32.36 20.85,-55.91 0.32,-9.16 0.32,-18.31 0,-27.47 -1.64,-23.54 -8.59,-42.17 -20.85,-55.91 -12.27,-13.73 -29.19,-20.6 -50.76,-20.6 -20.6,0 -37.11,6.29 -49.54,18.88 -12.43,12.59 -19.62,30.49 -21.58,53.7 -0.66,4.9 -0.99,11.37 -0.99,19.38 0,8.01 0.33,14.46 0.99,19.37zm325.08 -153.51c17.65,0 33.35,2.7 47.08,8.09 13.73,5.39 25.51,12.84 35.32,22.32 9.81,9.48 17.57,21.01 23.29,34.58 5.72,13.57 9.24,28.36 10.54,44.38 0.33,2.95 0.5,6.46 0.5,10.55 0,4.09 0,8.34 0,12.76 0,4.41 0,8.66 0,12.75 0,4.09 -0.17,7.44 -0.5,10.06 -1.63,16.34 -5.22,31.23 -10.79,44.63 -5.55,13.41 -13.24,24.85 -23.04,34.33 -9.81,9.48 -21.59,16.92 -35.32,22.32 -13.72,5.39 -29.43,8.09 -47.08,8.09 -17.66,0 -33.35,-2.7 -47.09,-8.09 -13.73,-5.39 -25.5,-12.84 -35.31,-22.32 -9.81,-9.48 -17.57,-20.93 -23.29,-34.33 -5.72,-13.41 -9.24,-28.29 -10.55,-44.63 -0.33,-2.62 -0.57,-5.97 -0.74,-10.06 -0.16,-4.09 -0.24,-8.34 -0.24,-12.75 0,-4.42 0.08,-8.67 0.24,-12.76 0.17,-4.09 0.41,-7.6 0.74,-10.55 1.31,-16.02 4.82,-30.82 10.55,-44.38 5.72,-13.58 13.49,-25.1 23.29,-34.58 9.81,-9.48 21.58,-16.92 35.31,-22.32 13.73,-5.39 29.43,-8.09 47.09,-8.09zm71.6 153.02c0.66,-5.55 0.99,-12.34 0.99,-20.35 0,-8.01 -0.33,-14.96 -0.99,-20.85 -0.98,-9.81 -3.11,-18.97 -6.37,-27.47 -3.27,-8.5 -7.85,-15.85 -13.73,-22.07 -5.88,-6.21 -13.08,-11.12 -21.58,-14.71 -8.5,-3.6 -18.48,-5.39 -29.92,-5.39 -11.45,0 -21.42,1.8 -29.92,5.39 -8.5,3.6 -15.7,8.5 -21.59,14.71 -5.88,6.21 -10.46,13.57 -13.73,22.07 -3.27,8.5 -5.39,17.66 -6.37,27.47 -0.65,5.88 -0.98,12.84 -0.98,20.85 0,8.01 0.33,14.79 0.98,20.35 0.98,9.81 3.11,18.97 6.37,27.47 3.28,8.5 7.85,15.85 13.73,22.07 5.88,6.21 13.09,11.12 21.59,14.71 8.5,3.6 18.47,5.39 29.92,5.39 11.44,0 21.42,-1.8 29.92,-5.39 8.5,-3.6 15.69,-8.5 21.58,-14.71 5.88,-6.21 10.47,-13.57 13.73,-22.07 3.27,-8.5 5.39,-17.66 6.37,-27.47zm208.36 -148.12c3.6,0 6.7,1.31 9.32,3.93 2.62,2.62 3.93,5.72 3.93,9.32l0 15.69c0,3.6 -1.31,6.7 -3.93,9.32 -2.62,2.62 -5.72,3.93 -9.32,3.93l-28.45 0c-37.6,0 -56.4,18.8 -56.4,56.4l0 143.21c0,3.6 -1.31,6.7 -3.93,9.32 -2.62,2.62 -5.72,3.93 -9.32,3.93l-18.15 0c-3.6,0 -6.7,-1.31 -9.32,-3.93 -2.62,-2.62 -3.93,-5.72 -3.93,-9.32l0 -228.55c0,-3.6 1.31,-6.7 3.93,-9.32 2.62,-2.62 5.72,-3.93 9.32,-3.93l18.15 0c3.6,0 6.7,1.31 9.32,3.93 2.62,2.62 3.93,5.72 3.93,9.32l0 15.2c6.53,-9.81 14.38,-17 23.53,-21.59 9.16,-4.57 21.1,-6.86 35.81,-6.86l25.5 0zm126.94 -4.9c17.65,0 33.35,2.7 47.08,8.09 13.73,5.39 25.51,12.84 35.32,22.32 9.81,9.48 17.57,21.01 23.29,34.58 5.72,13.57 9.24,28.36 10.54,44.38 0.33,2.95 0.5,6.46 0.5,10.55 0,4.09 0,8.34 0,12.76 0,4.41 0,8.66 0,12.75 0,4.09 -0.17,7.44 -0.5,10.06 -1.63,16.34 -5.22,31.23 -10.79,44.63 -5.55,13.41 -13.24,24.85 -23.04,34.33 -9.81,9.48 -21.59,16.92 -35.32,22.32 -13.72,5.39 -29.43,8.09 -47.08,8.09 -17.66,0 -33.35,-2.7 -47.09,-8.09 -13.73,-5.39 -25.5,-12.84 -35.31,-22.32 -9.81,-9.48 -17.57,-20.93 -23.29,-34.33 -5.72,-13.41 -9.24,-28.29 -10.55,-44.63 -0.33,-2.62 -0.57,-5.97 -0.74,-10.06 -0.16,-4.09 -0.24,-8.34 -0.24,-12.75 0,-4.42 0.08,-8.67 0.24,-12.76 0.17,-4.09 0.41,-7.6 0.74,-10.55 1.31,-16.02 4.82,-30.82 10.55,-44.38 5.72,-13.58 13.49,-25.1 23.29,-34.58 9.81,-9.48 21.58,-16.92 35.31,-22.32 13.73,-5.39 29.43,-8.09 47.09,-8.09zm71.6 153.02c0.66,-5.55 0.99,-12.34 0.99,-20.35 0,-8.01 -0.33,-14.96 -0.99,-20.85 -0.98,-9.81 -3.11,-18.97 -6.37,-27.47 -3.27,-8.5 -7.85,-15.85 -13.73,-22.07 -5.88,-6.21 -13.08,-11.12 -21.58,-14.71 -8.5,-3.6 -18.48,-5.39 -29.92,-5.39 -11.45,0 -21.42,1.8 -29.92,5.39 -8.5,3.6 -15.7,8.5 -21.59,14.71 -5.88,6.21 -10.46,13.57 -13.73,22.07 -3.27,8.5 -5.39,17.66 -6.37,27.47 -0.65,5.88 -0.98,12.84 -0.98,20.85 0,8.01 0.33,14.79 0.98,20.35 0.98,9.81 3.11,18.97 6.37,27.47 3.28,8.5 7.85,15.85 13.73,22.07 5.88,6.21 13.09,11.12 21.59,14.71 8.5,3.6 18.47,5.39 29.92,5.39 11.44,0 21.42,-1.8 29.92,-5.39 8.5,-3.6 15.69,-8.5 21.58,-14.71 5.88,-6.21 10.47,-13.57 13.73,-22.07 3.27,-8.5 5.39,-17.66 6.37,-27.47zm142.14 21.1c0,6.2 0.57,12.01 1.72,17.41 1.15,5.39 3.19,10.05 6.13,13.97 2.94,3.93 7.11,6.94 12.51,9.07 5.39,2.13 12.34,3.19 20.84,3.19l26 0c3.6,0 6.7,1.31 9.32,3.93 2.62,2.62 3.92,5.72 3.92,9.32l0 15.69c0,3.6 -1.3,6.7 -3.92,9.32 -2.62,2.62 -5.72,3.93 -9.32,3.93l-30.91 0c-28.44,0 -49.05,-7.35 -61.79,-22.07 -12.76,-14.71 -19.13,-35.97 -19.13,-63.76l0 -127.03 -36.29 0c-3.6,0 -6.7,-1.31 -9.32,-3.93 -2.62,-2.62 -3.93,-5.72 -3.93,-9.32l0 -15.69c0,-3.6 1.31,-6.7 3.93,-9.32 2.62,-2.62 5.72,-3.93 9.32,-3.93l36.29 0 0 -79.94c0,-3.6 1.31,-6.7 3.93,-9.32 2.62,-2.62 5.72,-3.93 9.32,-3.93l18.14 0c3.6,0 6.7,1.31 9.32,3.93 2.62,2.62 3.93,5.72 3.93,9.32l0 79.94 62.29 0c3.6,0 6.7,1.31 9.32,3.93 2.62,2.62 3.92,5.72 3.92,9.32l0 15.69c0,3.6 -1.3,6.7 -3.92,9.32 -2.62,2.62 -5.72,3.93 -9.32,3.93l-62.29 0 0 127.03zm341.75 90.73c-20.27,0 -36.46,-3.52 -48.56,-10.55 -12.1,-7.02 -21.25,-14.62 -27.46,-22.8l0 108.39c0,3.6 -1.31,6.7 -3.93,9.32 -2.62,2.62 -5.72,3.93 -9.32,3.93l-18.15 0c-3.6,0 -6.7,-1.31 -9.32,-3.93 -2.62,-2.62 -3.93,-5.72 -3.93,-9.32l0 -321.74c0,-3.6 1.31,-6.7 3.93,-9.32 2.62,-2.62 5.72,-3.93 9.32,-3.93l18.15 0c3.6,0 6.7,1.31 9.32,3.93 2.62,2.62 3.93,5.72 3.93,9.32l0 15.2c6.53,-8.83 15.85,-16.59 27.95,-23.29 12.1,-6.7 28.12,-10.06 48.07,-10.06 15.37,0 29.68,2.7 42.91,8.09 13.25,5.39 24.77,13.17 34.58,23.29 9.81,10.14 17.65,22.41 23.54,36.79 5.88,14.38 9.32,30.57 10.3,48.56 0.33,4.9 0.49,10.22 0.49,15.94 0,5.71 -0.16,11.03 -0.49,15.93 -0.98,17.99 -4.42,34.17 -10.3,48.56 -5.89,14.38 -13.73,26.57 -23.54,36.54 -9.81,9.98 -21.34,17.66 -34.58,23.05 -13.24,5.39 -27.54,8.09 -42.91,8.09zm-76.02 -153.51c-0.33,4.9 -0.5,11.36 -0.5,19.37 0,8.01 0.17,14.47 0.5,19.38 0.98,23.21 7.92,41.11 20.84,53.7 12.92,12.59 29.68,18.88 50.27,18.88 21.58,0 38.59,-6.86 51,-20.6 12.43,-13.73 19.3,-32.36 20.61,-55.91 0.32,-9.16 0.32,-18.31 0,-27.47 -1.31,-23.54 -8.18,-42.17 -20.61,-55.91 -12.42,-13.73 -29.43,-20.6 -51,-20.6 -20.27,0 -36.95,6.21 -50.02,18.63 -13.08,12.43 -20.11,29.27 -21.09,50.52zm325.08 -111.34c17.65,0 33.35,2.7 47.08,8.09 13.73,5.39 25.51,12.84 35.32,22.32 9.81,9.48 17.57,21.01 23.29,34.58 5.72,13.57 9.24,28.36 10.54,44.38 0.33,2.95 0.5,6.46 0.5,10.55 0,4.09 0,8.34 0,12.76 0,4.41 0,8.66 0,12.75 0,4.09 -0.17,7.44 -0.5,10.06 -1.63,16.34 -5.22,31.23 -10.79,44.63 -5.55,13.41 -13.24,24.85 -23.04,34.33 -9.81,9.48 -21.59,16.92 -35.32,22.32 -13.72,5.39 -29.43,8.09 -47.08,8.09 -17.66,0 -33.35,-2.7 -47.09,-8.09 -13.73,-5.39 -25.5,-12.84 -35.31,-22.32 -9.81,-9.48 -17.57,-20.93 -23.29,-34.33 -5.72,-13.41 -9.24,-28.29 -10.55,-44.63 -0.33,-2.62 -0.57,-5.97 -0.74,-10.06 -0.16,-4.09 -0.24,-8.34 -0.24,-12.75 0,-4.42 0.08,-8.67 0.24,-12.76 0.17,-4.09 0.41,-7.6 0.74,-10.55 1.31,-16.02 4.82,-30.82 10.55,-44.38 5.72,-13.58 13.49,-25.1 23.29,-34.58 9.81,-9.48 21.58,-16.92 35.31,-22.32 13.73,-5.39 29.43,-8.09 47.09,-8.09zm71.6 153.02c0.66,-5.55 0.99,-12.34 0.99,-20.35 0,-8.01 -0.33,-14.96 -0.99,-20.85 -0.98,-9.81 -3.11,-18.97 -6.37,-27.47 -3.27,-8.5 -7.85,-15.85 -13.73,-22.07 -5.88,-6.21 -13.08,-11.12 -21.58,-14.71 -8.5,-3.6 -18.48,-5.39 -29.92,-5.39 -11.45,0 -21.42,1.8 -29.92,5.39 -8.5,3.6 -15.7,8.5 -21.59,14.71 -5.88,6.21 -10.46,13.57 -13.73,22.07 -3.27,8.5 -5.39,17.66 -6.37,27.47 -0.65,5.88 -0.98,12.84 -0.98,20.85 0,8.01 0.33,14.79 0.98,20.35 0.98,9.81 3.11,18.97 6.37,27.47 3.28,8.5 7.85,15.85 13.73,22.07 5.88,6.21 13.09,11.12 21.59,14.71 8.5,3.6 18.47,5.39 29.92,5.39 11.44,0 21.42,-1.8 29.92,-5.39 8.5,-3.6 15.69,-8.5 21.58,-14.71 5.88,-6.21 10.47,-13.57 13.73,-22.07 3.27,-8.5 5.39,-17.66 6.37,-27.47zm208.36 -148.12c3.6,0 6.7,1.31 9.32,3.93 2.62,2.62 3.93,5.72 3.93,9.32l0 15.69c0,3.6 -1.31,6.7 -3.93,9.32 -2.62,2.62 -5.72,3.93 -9.32,3.93l-28.45 0c-37.6,0 -56.4,18.8 -56.4,56.4l0 143.21c0,3.6 -1.31,6.7 -3.93,9.32 -2.62,2.62 -5.72,3.93 -9.32,3.93l-18.15 0c-3.6,0 -6.7,-1.31 -9.32,-3.93 -2.62,-2.62 -3.93,-5.72 -3.93,-9.32l0 -228.55c0,-3.6 1.31,-6.7 3.93,-9.32 2.62,-2.62 5.72,-3.93 9.32,-3.93l18.15 0c3.6,0 6.7,1.31 9.32,3.93 2.62,2.62 3.93,5.72 3.93,9.32l0 15.2c6.53,-9.81 14.38,-17 23.53,-21.59 9.16,-4.57 21.1,-6.86 35.81,-6.86l25.5 0zm94.57 169.21c0,6.2 0.57,12.01 1.72,17.41 1.15,5.39 3.19,10.05 6.13,13.97 2.94,3.93 7.11,6.94 12.51,9.07 5.39,2.13 12.34,3.19 20.84,3.19l26 0c3.6,0 6.7,1.31 9.32,3.93 2.62,2.62 3.92,5.72 3.92,9.32l0 15.69c0,3.6 -1.3,6.7 -3.92,9.32 -2.62,2.62 -5.72,3.93 -9.32,3.93l-30.91 0c-28.44,0 -49.05,-7.35 -61.79,-22.07 -12.76,-14.71 -19.13,-35.97 -19.13,-63.76l0 -127.03 -36.29 0c-3.6,0 -6.7,-1.31 -9.32,-3.93 -2.62,-2.62 -3.93,-5.72 -3.93,-9.32l0 -15.69c0,-3.6 1.31,-6.7 3.93,-9.32 2.62,-2.62 5.72,-3.93 9.32,-3.93l36.29 0 0 -79.94c0,-3.6 1.31,-6.7 3.93,-9.32 2.62,-2.62 5.72,-3.93 9.32,-3.93l18.14 0c3.6,0 6.7,1.31 9.32,3.93 2.62,2.62 3.93,5.72 3.93,9.32l0 79.94 62.29 0c3.6,0 6.7,1.31 9.32,3.93 2.62,2.62 3.92,5.72 3.92,9.32l0 15.69c0,3.6 -1.3,6.7 -3.92,9.32 -2.62,2.62 -5.72,3.93 -9.32,3.93l-62.29 0 0 127.03z"/>
    <path class="fil2" d="M8420.62 2787.27c0,-13.08 2.62,-24.52 7.84,-34.33 5.23,-9.81 12.43,-18.15 21.59,-25.01 9.15,-6.87 19.86,-12.43 32.12,-16.68 12.26,-4.25 25.25,-7.51 38.99,-9.81l69.15 -11.28 0 -6.37c0,-16.68 -5.47,-29.19 -16.42,-37.52 -10.96,-8.34 -24.61,-12.51 -40.95,-12.51 -14.39,0 -25.26,2.61 -32.61,7.84 -7.36,5.23 -13.65,11.45 -18.89,18.64 -1.96,2.62 -4.09,4.42 -6.37,5.39 -2.29,0.98 -5.39,1.47 -9.32,1.47l-14.71 0c-3.6,0 -6.78,-1.31 -9.56,-3.92 -2.79,-2.62 -4.01,-5.72 -3.69,-9.32 0.66,-7.19 3.52,-14.55 8.59,-22.08 5.06,-7.52 11.93,-14.22 20.6,-20.11 8.66,-5.88 18.64,-10.71 29.92,-14.46 11.28,-3.77 23.29,-5.64 36.05,-5.64 14.71,0 28.36,2.13 40.95,6.37 12.59,4.26 23.37,10.47 32.36,18.64 8.99,8.17 16.02,18.31 21.09,30.41 5.07,12.1 7.6,26 7.6,41.69l0 149.59c0,3.6 -1.3,6.7 -3.92,9.32 -2.62,2.62 -5.72,3.93 -9.32,3.93l-18.15 0c-3.6,0 -6.7,-1.31 -9.32,-3.93 -2.62,-2.62 -3.93,-5.72 -3.93,-9.32l0 -20.11c-2.94,6.21 -7.51,11.69 -13.72,16.43 -6.21,4.74 -13.33,8.75 -21.34,12.02 -8.01,3.27 -16.35,5.72 -25.01,7.35 -8.67,1.64 -16.76,2.46 -24.28,2.46 -12.75,0 -24.44,-1.8 -35.06,-5.39 -10.63,-3.6 -19.62,-8.42 -26.98,-14.47 -7.35,-6.04 -13.08,-13.32 -17.16,-21.82 -4.1,-8.51 -6.13,-17.66 -6.13,-27.47zm90.24 26.97c11.78,0 22.57,-1.8 32.37,-5.39 9.81,-3.6 18.23,-8.58 25.25,-14.95 7.03,-6.38 12.43,-13.98 16.19,-22.8 3.76,-8.83 5.63,-18.64 5.63,-29.43l0 -12.27 -57.87 9.32c-20.61,3.27 -36.95,8.5 -49.05,15.69 -12.11,7.19 -18.15,16.51 -18.15,27.96 0,3.6 0.82,7.19 2.45,10.79 1.64,3.6 4.26,7.03 7.85,10.3 3.6,3.28 8.26,5.88 13.97,7.85 5.72,1.96 12.84,2.94 21.34,2.94zm212.29 24.03c0,3.6 -1.31,6.7 -3.93,9.32 -2.62,2.62 -5.72,3.93 -9.32,3.93l-18.15 0c-3.6,0 -6.7,-1.31 -9.32,-3.93 -2.62,-2.62 -3.93,-5.72 -3.93,-9.32l0 -321.74c0,-3.6 1.31,-6.7 3.93,-9.32 2.62,-2.62 5.72,-3.93 9.32,-3.93l18.15 0c3.6,0 6.7,1.31 9.32,3.93 2.62,2.62 3.93,5.72 3.93,9.32l0 321.74zm90.15 0c0,3.6 -1.31,6.7 -3.93,9.32 -2.62,2.62 -5.72,3.93 -9.32,3.93l-18.15 0c-3.6,0 -6.7,-1.31 -9.32,-3.93 -2.62,-2.62 -3.93,-5.72 -3.93,-9.32l0 -228.55c0,-3.6 1.31,-6.7 3.93,-9.32 2.62,-2.62 5.72,-3.93 9.32,-3.93l18.15 0c3.6,0 6.7,1.31 9.32,3.93 2.62,2.62 3.93,5.72 3.93,9.32l0 228.55zm4.9 -293.79c0,3.6 -1.31,6.7 -3.93,9.32 -2.62,2.62 -5.72,3.93 -9.32,3.93l-27.96 0c-3.6,0 -6.7,-1.31 -9.32,-3.93 -2.62,-2.62 -3.93,-5.72 -3.93,-9.32l0 -27.95c0,-3.6 1.31,-6.7 3.93,-9.32 2.62,-2.62 5.72,-3.93 9.32,-3.93l27.96 0c3.6,0 6.7,1.31 9.32,3.93 2.62,2.62 3.93,5.72 3.93,9.32l0 27.95z"/>
   </g>
  </g>
 </g>
</svg>
